HIERARCHY
ROOT hip
{
  OFFSET 0 0 0
  CHANNELS 6 Xposition Yposition Zposition Zrotation Yrotation Xrotation
  JOINT abdomen
  {
    OFFSET 0 20.6881 -0.73152
    CHANNELS 3 Zrotation Xrotation Yrotation
    JOINT chest
    {
      OFFSET 0 11.7043 -0.48768
      CHANNELS 3 Zrotation Xrotation Yrotation
      JOINT neck
      {
        OFFSET 0 22.1894 -2.19456
        CHANNELS 3 Zrotation Xrotation Yrotation
        JOINT head
        {
          OFFSET -0.24384 7.07133 1.2192
          CHANNELS 3 Zrotation Xrotation Yrotation
          JOINT leftEye
          {
            OFFSET 4.14528 8.04674 8.04672
            CHANNELS 3 Zrotation Xrotation Yrotation
            End Site
            {
              OFFSET 1 0 0
            }
          }
          JOINT rightEye
          {
            OFFSET -3.6576 8.04674 8.04672
            CHANNELS 3 Zrotation Xrotation Yrotation
            End Site
            {
              OFFSET 1 0 0
            }
          }
        }
      }
      JOINT rCollar
      {
        OFFSET -2.68224 19.2634 -4.8768
        CHANNELS 3 Zrotation Xrotation Yrotation
        JOINT rShldr
        {
          OFFSET -8.77824 -1.95073 1.46304
          CHANNELS 3 Zrotation Xrotation Yrotation
          JOINT rForeArm
          {
            OFFSET -28.1742 -1.7115 0.48768
            CHANNELS 3 Zrotation Xrotation Yrotation
            JOINT rHand
            {
              OFFSET -22.5879 0.773209 7.07136
              CHANNELS 3 Zrotation Xrotation Yrotation
              JOINT rThumb1
              {
                OFFSET -1.2192 -0.487915 3.41376
                CHANNELS 3 Zrotation Xrotation Yrotation
                JOINT rThumb2
                {
                  OFFSET -3.37035 -0.52449 3.41376
                  CHANNELS 3 Zrotation Xrotation Yrotation
                  End Site
                  {
                    OFFSET -1.78271 -1.18214 1.43049
                  }
                }
              }
              JOINT rIndex1
              {
                OFFSET -7.75947 0.938293 5.60832
                CHANNELS 3 Zrotation Xrotation Yrotation
                JOINT rIndex2
                {
                  OFFSET -2.54057 -0.884171 1.56538
                  CHANNELS 3 Zrotation Xrotation Yrotation
                  End Site
                  {
                    OFFSET -1.62519 -0.234802 1.16502
                  }
                }
              }
              JOINT rMid1
              {
                OFFSET -8.24714 1.18213 3.41376
                CHANNELS 3 Zrotation Xrotation Yrotation
                JOINT rMid2
                {
                  OFFSET -3.10165 -0.590103 1.0647
                  CHANNELS 3 Zrotation Xrotation Yrotation
                  End Site
                  {
                    OFFSET -2.48547 -0.328903 0.83742
                  }
                }
              }
              JOINT rRing1
              {
                OFFSET -8.82822 0.546677 1.51678
                CHANNELS 3 Zrotation Xrotation Yrotation
                JOINT rRing2
                {
                  OFFSET -2.60934 -0.819778 -0.0198488
                  CHANNELS 3 Zrotation Xrotation Yrotation
                  End Site
                  {
                    OFFSET -2.33842 -0.294052 0.168128
                  }
                }
              }
              JOINT rPinky1
              {
                OFFSET -8.27202 -0.0477905 -0.4584
                CHANNELS 3 Zrotation Xrotation Yrotation
                JOINT rPinky2
                {
                  OFFSET -1.82734 -0.647385 -0.700984
                  CHANNELS 3 Zrotation Xrotation Yrotation
                  End Site
                  {
                    OFFSET -1.69225 -0.51767 -0.607171
                  }
                }
              }
            }
          }
        }
      }
      JOINT lCollar
      {
        OFFSET 2.68224 19.2634 -4.8768
        CHANNELS 3 Zrotation Xrotation Yrotation
        JOINT lShldr
        {
          OFFSET 8.77824 -1.95073 1.46304
          CHANNELS 3 Zrotation Xrotation Yrotation
          JOINT lForeArm
          {
            OFFSET 28.1742 -1.7115 0.48768
            CHANNELS 3 Zrotation Xrotation Yrotation
            JOINT lHand
            {
              OFFSET 22.5879 0.773209 7.07136
              CHANNELS 3 Zrotation Xrotation Yrotation
              JOINT lThumb1
              {
                OFFSET 1.2192 -0.487915 3.41376
                CHANNELS 3 Zrotation Xrotation Yrotation
                JOINT lThumb2
                {
                  OFFSET 3.37035 -0.52449 3.41376
                  CHANNELS 3 Zrotation Xrotation Yrotation
                  End Site
                  {
                    OFFSET 1.78271 -1.18214 1.43049
                  }
                }
              }
              JOINT lIndex1
              {
                OFFSET 7.75947 0.938293 5.60832
                CHANNELS 3 Zrotation Xrotation Yrotation
                JOINT lIndex2
                {
                  OFFSET 2.54057 -0.884171 1.56538
                  CHANNELS 3 Zrotation Xrotation Yrotation
                  End Site
                  {
                    OFFSET 1.62519 -0.234802 1.16502
                  }
                }
              }
              JOINT lMid1
              {
                OFFSET 8.24714 1.18213 3.41376
                CHANNELS 3 Zrotation Xrotation Yrotation
                JOINT lMid2
                {
                  OFFSET 3.10165 -0.590103 1.0647
                  CHANNELS 3 Zrotation Xrotation Yrotation
                  End Site
                  {
                    OFFSET 2.48547 -0.328903 0.83742
                  }
                }
              }
              JOINT lRing1
              {
                OFFSET 8.82822 0.546677 1.51678
                CHANNELS 3 Zrotation Xrotation Yrotation
                JOINT lRing2
                {
                  OFFSET 2.60934 -0.819778 -0.0198488
                  CHANNELS 3 Zrotation Xrotation Yrotation
                  End Site
                  {
                    OFFSET 2.33842 -0.294052 0.168128
                  }
                }
              }
              JOINT lPinky1
              {
                OFFSET 8.27202 -0.0477905 -0.4584
                CHANNELS 3 Zrotation Xrotation Yrotation
                JOINT lPinky2
                {
                  OFFSET 1.82734 -0.647385 -0.700984
                  CHANNELS 3 Zrotation Xrotation Yrotation
                  End Site
                  {
                    OFFSET 1.69225 -0.51767 -0.607171
                  }
                }
              }
            }
          }
        }
      }
    }
  }
  JOINT rButtock
  {
    OFFSET -8.77824 4.35084 1.2192
    CHANNELS 3 Zrotation Xrotation Yrotation
    JOINT rThigh
    {
      OFFSET 0 -1.70687 -2.19456
      CHANNELS 3 Zrotation Xrotation Yrotation
      JOINT rShin
      {
        OFFSET 0 -36.8199 0.73152
        CHANNELS 3 Zrotation Xrotation Yrotation
        JOINT rFoot
        {
          OFFSET 0.73152 -45.1104 -5.12064
          CHANNELS 3 Zrotation Xrotation Yrotation
          End Site
          {
            OFFSET -1.1221 -3.69964 12.103
          }
        }
      }
    }
  }
  JOINT lButtock
  {
    OFFSET 8.77824 4.35084 1.2192
    CHANNELS 3 Zrotation Xrotation Yrotation
    JOINT lThigh
    {
      OFFSET 0 -1.70687 -2.19456
      CHANNELS 3 Zrotation Xrotation Yrotation
      JOINT lShin
      {
        OFFSET 0 -36.8199 0.73152
        CHANNELS 3 Zrotation Xrotation Yrotation
        JOINT lFoot
        {
          OFFSET -0.73152 -45.1104 -5.12064
          CHANNELS 3 Zrotation Xrotation Yrotation
          End Site
          {
            OFFSET 1.1221 -3.69964 12.103
          }
        }
      }
    }
  }
}
MOTION
Frames:	7
Frame Time:	0.00833333
20.604343 0.62429 -55.48459 5.939752 18.958586 11.694575 -8.71465 13.662023 -4.198927 3.741114 -9.486826 -1.350404 -6.719654 15.634826 -8.424408 10.118322 -21.912632 -13.57037 -0.001432 0.042756 0.009131 -0.218435 -0.00767 -0.104207 0.058778 -0.134603 -0.200169 57.86341 28.132114 9.176545 -16.681461 -8.962161 31.222124 -0.514979 7.665624 0.873071 -0.362035 0.222116 0.112743 0.094526 0.238107 -0.030635 -0.103037 0.273201 -0.40399 7.64648 5.65122 0.374652 -0.261882 0.016698 -0.077754 2.89781 0.985775 -0.186866 -0.297988 -0.387376 0.177457 10.410657 0.961978 -0.067954 -0.001826 -0.280936 0.127471 2.153095 -0.7342 -0.345924 -0.087518 0.173736 -0.10851 -67.23405 42.100063 -18.16532 16.351242 -8.903232 -30.928566 0.212054 12.281951 -1.487975 0.102334 0.063729 -0.395066 0.147232 0.494932 0.020912 0.091038 -0.085606 -0.134844 -7.8329 5.43367 -0.360313 0.036148 -0.024621 -0.219671 -2.859166 1.042115 -0.245238 0.160585 -0.263498 0.159578 -10.145281 0.765929 0.345786 -0.241189 0.097547 -0.117733 -1.932202 -0.726754 0.487766 -0.147612 0.095983 -0.036892 -42.45088 -63.875008 -34.272923 -1.366378 69.26408 2.237335 -0.938722 -3.810701 -0.71698 0.205277 0.27742 -0.161895 6.796362 5.943967 2.845033 0.11964 30.413603 -2.49811 15.446 -18.544 35.658817
20.886936 0.60579 -55.702957 6.085462 19.416956 11.796277 -8.372848 14.025286 -3.628795 3.443014 -9.644741 -1.228673 -6.505998 15.155825 -7.68404 9.416806 -22.112541 -12.102132 0.000162 0.050725 0.010264 -0.222481 -0.017567 -0.131815 0.037403 -0.109029 -0.221629 58.563774 27.40081 8.768014 -16.467005 -8.68835 30.701769 -0.549178 7.681408 0.836776 -0.367174 0.233664 0.084446 0.100477 0.222543 -0.060116 -0.092864 0.243761 -0.419857 7.655525 5.648955 0.366189 -0.26198 -0.000177 -0.07087 2.928212 0.978094 -0.175327 -0.322048 -0.365817 0.17852 10.466433 0.944705 -0.061088 -0.023267 -0.26339 0.146116 2.19612 -0.739274 -0.320558 -0.135533 0.128004 -0.085396 -67.043015 42.545757 -18.48114 16.289736 -8.8916 -30.858797 0.124486 12.489931 -1.543177 0.09308 0.059049 -0.418672 0.149211 0.527549 0.006884 0.083963 -0.100527 -0.175581 -7.839358 5.462212 -0.371258 0.077875 -0.040578 -0.223548 -2.88617 1.06098 -0.264879 0.171888 -0.27598 0.191409 -10.129836 0.751631 0.364845 -0.221775 0.109336 -0.11119 -1.923441 -0.715335 0.518417 -0.12472 0.107804 -0.056248 -42.224533 -63.889446 -34.199596 -1.329063 69.024574 2.284072 -1.310542 -3.512547 -1.910343 0.178645 0.291089 -0.173321 7.187598 5.168914 2.692654 0.202595 31.403793 -2.504318 14.858848 -18.207256 35.088066
21.15006 0.587915 -55.844917 6.216316 19.914726 11.884924 -7.978638 14.421912 -3.085322 3.177688 -9.799969 -1.105998 -6.286214 14.733082 -6.957182 8.722998 -22.393276 -10.652374 0.001755 0.055113 0.010151 -0.226669 -0.031057 -0.165669 0.015884 -0.08254 -0.241201 59.395435 26.622025 8.247984 -16.232918 -8.405165 30.128323 -0.600792 7.682178 0.799084 -0.371622 0.241678 0.042943 0.104237 0.19859 -0.10038 -0.086663 0.20074 -0.428278 7.667412 5.64196 0.352363 -0.255965 -0.019607 -0.067221 2.96144 0.971913 -0.160844 -0.34376 -0.339437 0.172008 10.524041 0.920373 -0.051914 -0.046782 -0.23794 0.162397 2.247235 -0.740389 -0.288805 -0.182868 0.077124 -0.053287 -66.85938 42.994728 -18.8211 16.221685 -8.880536 -30.776464 0.018523 12.696966 -1.591055 0.086182 0.058934 -0.437784 0.156298 0.559823 -0.006517 0.074445 -0.121196 -0.221775 -7.854735 5.493398 -0.384381 0.122281 -0.060421 -0.231514 -2.921274 1.077713 -0.28298 0.177444 -0.287457 0.226947 -10.118337 0.733585 0.380944 -0.200004 0.127425 -0.100016 -1.920172 -0.701214 0.555667 -0.097982 0.116736 -0.078686 -41.892998 -63.955776 -34.108868 -1.281329 68.78001 2.362488 -1.741797 -3.172316 -3.184739 0.147873 0.29824 -0.18627 7.640898 4.162576 2.54538 0.289708 32.827137 -2.508194 14.26257 -17.837255 34.46122
21.383032 0.570989 -55.898884 6.29692 20.454157 11.929922 -7.507336 14.860776 -2.592944 2.954312 -9.949697 -0.981452 -6.060312 14.385137 -6.262309 8.052914 -22.76311 -9.259717 0.002511 0.055343 0.008143 -0.23255 -0.048233 -0.203981 -0.003691 -0.056999 -0.257484 60.35453 25.798868 7.614152 -15.97976 -8.115772 29.504047 -0.66987 7.677962 0.761814 -0.374716 0.245328 -0.009922 0.106476 0.167034 -0.149469 -0.087492 0.141893 -0.427566 7.682629 5.62982 0.328772 -0.242619 -0.037432 -0.066374 2.995366 0.969113 -0.14173 -0.360831 -0.311963 0.156005 10.577893 0.889276 -0.04243 -0.073029 -0.205714 0.171479 2.304195 -0.737025 -0.251725 -0.225913 0.021268 -0.012579 -66.67912 43.433586 -19.18106 16.141615 -8.866906 -30.68205 -0.108983 12.902052 -1.628383 0.080855 0.063617 -0.448011 0.170404 0.589442 -0.017267 0.063025 -0.147258 -0.272238 -7.878426 5.526236 -0.399287 0.16918 -0.082198 -0.245138 -2.963444 1.091452 -0.297973 0.175008 -0.297115 0.26491 -10.113896 0.715046 0.391046 -0.175135 0.150519 -0.083258 -1.924329 -0.685739 0.597274 -0.069331 0.125892 -0.100569 -41.42546 -64.06498 -33.996033 -1.219468 68.53173 2.487058 -2.231507 -2.77527 -4.533431 0.11274 0.293861 -0.1985 8.170868 2.862786 2.389291 0.380696 34.791386 -2.512384 13.657661 -17.42646 33.745457
21.56966 0.554946 -55.859566 6.281002 21.027954 11.884639 -6.927229 15.348212 -2.17722 2.777619 -10.090304 -0.852636 -5.826351 14.125623 -5.619312 7.424472 -23.226812 -7.968414 0.001064 0.0506 0.003034 -0.241953 -0.069268 -0.243671 -0.017539 -0.035007 -0.267598 61.42201 24.940214 6.873517 -15.709203 -7.826019 28.839544 -0.749637 7.687866 0.727961 -0.374995 0.243903 -0.067881 0.108824 0.130388 -0.202198 -0.098575 0.066353 -0.417173 7.702496 5.613378 0.289697 -0.220461 -0.047437 -0.06636 3.026682 0.973471 -0.114712 -0.370814 -0.289376 0.128675 10.619807 0.852554 -0.036411 -0.102821 -0.16993 0.167111 2.362034 -0.730196 -0.211702 -0.260908 -0.038658 0.034471 -66.49839 43.841965 -19.544458 16.042759 -8.846328 -30.57653 -0.260097 13.101679 -1.653699 0.074324 0.071676 -0.443789 0.193303 0.612533 -0.022507 0.051445 -0.176165 -0.324833 -7.907608 5.559704 -0.414162 0.218776 -0.102758 -0.265936 -3.009878 1.10065 -0.308355 0.162188 -0.301659 0.303072 -10.120419 0.7015 0.391218 -0.145793 0.175505 -0.060569 -1.9372 -0.671216 0.638134 -0.042795 0.140128 -0.11596 -40.781105 -64.19078 -33.851513 -1.139824 68.28078 2.670498 -2.765217 -2.305912 -5.9341 0.073339 0.273022 -0.205304 8.7908 1.208082 2.199904 0.476316 37.398193 -2.525108 13.041489 -16.966768 32.892967
21.687977 0.539463 -55.730267 6.134012 21.61325 11.711898 -6.210634 15.879276 -1.859698 2.646624 -10.217595 -0.716891 -5.580378 13.960722 -5.047748 6.854797 -23.786936 -6.824412 -0.005163 0.038803 -0.006615 -0.256699 -0.094942 -0.281055 -0.01913 -0.019016 -0.2676 62.560333 24.061804 6.041606 -15.423595 -7.545241 28.155535 -0.822701 7.737263 0.702813 -0.371017 0.236901 -0.119691 0.114042 0.092232 -0.24999 -0.122443 -0.023441 -0.398057 7.730188 5.595391 0.230666 -0.187188 -0.043751 -0.063624 3.051798 0.990504 -0.074744 -0.371994 -0.278972 0.088669 10.640018 0.811446 -0.038198 -0.135804 -0.135848 0.144378 2.413862 -0.72241 -0.17171 -0.286013 -0.100312 0.084281 -66.31135 44.19868 -19.888699 15.919677 -8.814095 -30.460196 -0.431553 13.277263 -1.667862 0.061166 0.080064 -0.421172 0.226586 0.62326 -0.018762 0.04243 -0.201905 -0.377036 -7.937171 5.59233 -0.424443 0.27101 -0.118195 -0.294021 -3.056846 1.102128 -0.31291 0.136263 -0.293784 0.33838 -10.142691 0.699076 0.378354 -0.110785 0.198519 -0.032984 -1.958568 -0.659341 0.670012 -0.025152 0.164168 -0.117553 -39.913666 -64.29889 -33.661667 -1.042456 68.03227 2.916713 -3.313435 -1.760169 -7.353104 0.031411 0.233687 -0.2001 9.504116 -0.848585 1.949937 0.576416 40.721264 -2.55695 12.411847 -16.453636 31.850279
21.711779 0.524546 -55.522682 5.860178 22.169485 11.408716 -5.353244 16.427647 -1.650222 2.555496 -10.326809 -0.572462 -5.317154 13.888828 -4.564982 6.357105 -24.443182 -5.86817 -0.0205 0.016916 -0.02134 -0.27825 -0.126634 -0.312171 0.000796 -0.010032 -0.254222 63.715385 23.183964 5.134771 -15.125852 -7.285542 27.482622 -0.862444 7.858338 0.69659 -0.362622 0.223213 -0.150739 0.124897 0.055856 -0.281813 -0.160369 -0.119861 -0.371606 7.770884 5.580102 0.152267 -0.139128 -0.024159 -0.054009 3.068482 1.02616 -0.016235 -0.36343 -0.28741 0.034897 10.629093 0.766356 -0.049916 -0.168467 -0.109894 0.102561 2.453146 -0.716255 -0.134745 -0.302641 -0.158624 0.132509 -66.10205 44.49393 -20.202183 15.773159 -8.767504 -30.334606 -0.609518 13.378075 -1.672193 0.034583 0.084196 -0.381542 0.270812 0.614784 -0.00248 0.038895 -0.215122 -0.426975 -7.960769 5.62142 -0.421578 0.324649 -0.124981 -0.326581 -3.100975 1.09074 -0.310342 0.094726 -0.262811 0.367496 -10.186114 0.712243 0.352816 -0.069796 0.216452 -0.003782 -1.985806 -0.648856 0.682236 -0.02575 0.199729 -0.09888 -38.79138 -64.35998 -33.426216 -0.933733 67.799446 3.218201 -3.837703 -1.155999 -8.75836 -0.008575 0.178801 -0.176321 10.294878 -3.318613 1.622728 0.678292 44.771072 -2.61425 11.770536 -15.892098 30.580717
